<?xml version="1.0" encoding="UTF-8" standalone="no"?>
<!DOCTYPE svg PUBLIC "-//W3C//DTD SVG 1.1//EN"
 "http://www.w3.org/Graphics/SVG/1.1/DTD/svg11.dtd">
<!-- Generated by graphviz version 2.43.0 (0)
 -->
<!-- Title: Tree Pages: 1 -->
<svg width="909pt" height="314pt"
 viewBox="0.00 0.00 908.50 314.00" xmlns="http://www.w3.org/2000/svg" xmlns:xlink="http://www.w3.org/1999/xlink">
<g id="graph0" class="graph" transform="scale(1 1) rotate(0) translate(4 310)">
<title>Tree</title>
<polygon fill="white" stroke="transparent" points="-4,4 -4,-310 904.5,-310 904.5,4 -4,4"/>
<!-- 0 -->
<g id="node1" class="node">
<title>0</title>
<polygon fill="#ba93f1" stroke="black" points="578.5,-306 348.5,-306 348.5,-223 578.5,-223 578.5,-306"/>
<text text-anchor="middle" x="463.5" y="-290.8" font-family="Helvetica,sans-Serif" font-size="14.00">a1 &lt;= 0.5</text>
<text text-anchor="middle" x="463.5" y="-275.8" font-family="Helvetica,sans-Serif" font-size="14.00">entropy = 1.218</text>
<text text-anchor="middle" x="463.5" y="-260.8" font-family="Helvetica,sans-Serif" font-size="14.00">samples = 54045</text>
<text text-anchor="middle" x="463.5" y="-245.8" font-family="Helvetica,sans-Serif" font-size="14.00">value = [5159, 13308, 35578]</text>
<text text-anchor="middle" x="463.5" y="-230.8" font-family="Helvetica,sans-Serif" font-size="14.00">class = win</text>
</g>
<!-- 1 -->
<g id="node2" class="node">
<title>1</title>
<polygon fill="#c6a6f3" stroke="black" points="456.5,-187 226.5,-187 226.5,-104 456.5,-104 456.5,-187"/>
<text text-anchor="middle" x="341.5" y="-171.8" font-family="Helvetica,sans-Serif" font-size="14.00">g1 &lt;= 0.5</text>
<text text-anchor="middle" x="341.5" y="-156.8" font-family="Helvetica,sans-Serif" font-size="14.00">entropy = 1.276</text>
<text text-anchor="middle" x="341.5" y="-141.8" font-family="Helvetica,sans-Serif" font-size="14.00">samples = 37801</text>
<text text-anchor="middle" x="341.5" y="-126.8" font-family="Helvetica,sans-Serif" font-size="14.00">value = [3608, 11064, 23129]</text>
<text text-anchor="middle" x="341.5" y="-111.8" font-family="Helvetica,sans-Serif" font-size="14.00">class = win</text>
</g>
<!-- 0&#45;&gt;1 -->
<g id="edge1" class="edge">
<title>0&#45;&gt;1</title>
<path fill="none" stroke="black" d="M421.17,-222.91C411.52,-213.65 401.18,-203.73 391.25,-194.21"/>
<polygon fill="black" stroke="black" points="393.39,-191.42 383.75,-187.02 388.55,-196.47 393.39,-191.42"/>
<text text-anchor="middle" x="384.28" y="-208.32" font-family="Helvetica,sans-Serif" font-size="14.00">True</text>
</g>
<!-- 4 -->
<g id="node5" class="node">
<title>4</title>
<polygon fill="#a36fec" stroke="black" points="696,-187 475,-187 475,-104 696,-104 696,-187"/>
<text text-anchor="middle" x="585.5" y="-171.8" font-family="Helvetica,sans-Serif" font-size="14.00">b1 &lt;= 0.5</text>
<text text-anchor="middle" x="585.5" y="-156.8" font-family="Helvetica,sans-Serif" font-size="14.00">entropy = 1.012</text>
<text text-anchor="middle" x="585.5" y="-141.8" font-family="Helvetica,sans-Serif" font-size="14.00">samples = 16244</text>
<text text-anchor="middle" x="585.5" y="-126.8" font-family="Helvetica,sans-Serif" font-size="14.00">value = [1551, 2244, 12449]</text>
<text text-anchor="middle" x="585.5" y="-111.8" font-family="Helvetica,sans-Serif" font-size="14.00">class = win</text>
</g>
<!-- 0&#45;&gt;4 -->
<g id="edge4" class="edge">
<title>0&#45;&gt;4</title>
<path fill="none" stroke="black" d="M505.83,-222.91C515.48,-213.65 525.82,-203.73 535.75,-194.21"/>
<polygon fill="black" stroke="black" points="538.45,-196.47 543.25,-187.02 533.61,-191.42 538.45,-196.47"/>
<text text-anchor="middle" x="542.72" y="-208.32" font-family="Helvetica,sans-Serif" font-size="14.00">False</text>
</g>
<!-- 2 -->
<g id="node3" class="node">
<title>2</title>
<polygon fill="#d6bff7" stroke="black" points="221,-68 0,-68 0,0 221,0 221,-68"/>
<text text-anchor="middle" x="110.5" y="-52.8" font-family="Helvetica,sans-Serif" font-size="14.00">entropy = 1.315</text>
<text text-anchor="middle" x="110.5" y="-37.8" font-family="Helvetica,sans-Serif" font-size="14.00">samples = 26290</text>
<text text-anchor="middle" x="110.5" y="-22.8" font-family="Helvetica,sans-Serif" font-size="14.00">value = [2411, 9175, 14704]</text>
<text text-anchor="middle" x="110.5" y="-7.8" font-family="Helvetica,sans-Serif" font-size="14.00">class = win</text>
</g>
<!-- 1&#45;&gt;2 -->
<g id="edge2" class="edge">
<title>1&#45;&gt;2</title>
<path fill="none" stroke="black" d="M255.81,-103.88C234.02,-93.55 210.7,-82.5 189.27,-72.34"/>
<polygon fill="black" stroke="black" points="190.74,-69.16 180.21,-68.04 187.74,-75.49 190.74,-69.16"/>
</g>
<!-- 3 -->
<g id="node4" class="node">
<title>3</title>
<polygon fill="#a979ed" stroke="black" points="451.5,-68 239.5,-68 239.5,0 451.5,0 451.5,-68"/>
<text text-anchor="middle" x="345.5" y="-52.8" font-family="Helvetica,sans-Serif" font-size="14.00">entropy = 1.097</text>
<text text-anchor="middle" x="345.5" y="-37.8" font-family="Helvetica,sans-Serif" font-size="14.00">samples = 11511</text>
<text text-anchor="middle" x="345.5" y="-22.8" font-family="Helvetica,sans-Serif" font-size="14.00">value = [1197, 1889, 8425]</text>
<text text-anchor="middle" x="345.5" y="-7.8" font-family="Helvetica,sans-Serif" font-size="14.00">class = win</text>
</g>
<!-- 1&#45;&gt;3 -->
<g id="edge3" class="edge">
<title>1&#45;&gt;3</title>
<path fill="none" stroke="black" d="M342.99,-103.73C343.29,-95.52 343.61,-86.86 343.91,-78.56"/>
<polygon fill="black" stroke="black" points="347.42,-78.42 344.28,-68.3 340.42,-78.17 347.42,-78.42"/>
</g>
<!-- 5 -->
<g id="node6" class="node">
<title>5</title>
<polygon fill="#aa79ed" stroke="black" points="688.5,-68 476.5,-68 476.5,0 688.5,0 688.5,-68"/>
<text text-anchor="middle" x="582.5" y="-52.8" font-family="Helvetica,sans-Serif" font-size="14.00">entropy = 1.11</text>
<text text-anchor="middle" x="582.5" y="-37.8" font-family="Helvetica,sans-Serif" font-size="14.00">samples = 12577</text>
<text text-anchor="middle" x="582.5" y="-22.8" font-family="Helvetica,sans-Serif" font-size="14.00">value = [1373, 2054, 9150]</text>
<text text-anchor="middle" x="582.5" y="-7.8" font-family="Helvetica,sans-Serif" font-size="14.00">class = win</text>
</g>
<!-- 4&#45;&gt;5 -->
<g id="edge5" class="edge">
<title>4&#45;&gt;5</title>
<path fill="none" stroke="black" d="M584.38,-103.73C584.16,-95.52 583.92,-86.86 583.69,-78.56"/>
<polygon fill="black" stroke="black" points="587.18,-78.2 583.41,-68.3 580.19,-78.39 587.18,-78.2"/>
</g>
<!-- 6 -->
<g id="node7" class="node">
<title>6</title>
<polygon fill="#8e4ee8" stroke="black" points="900.5,-68 706.5,-68 706.5,0 900.5,0 900.5,-68"/>
<text text-anchor="middle" x="803.5" y="-52.8" font-family="Helvetica,sans-Serif" font-size="14.00">entropy = 0.57</text>
<text text-anchor="middle" x="803.5" y="-37.8" font-family="Helvetica,sans-Serif" font-size="14.00">samples = 3667</text>
<text text-anchor="middle" x="803.5" y="-22.8" font-family="Helvetica,sans-Serif" font-size="14.00">value = [178, 190, 3299]</text>
<text text-anchor="middle" x="803.5" y="-7.8" font-family="Helvetica,sans-Serif" font-size="14.00">class = win</text>
</g>
<!-- 4&#45;&gt;6 -->
<g id="edge6" class="edge">
<title>4&#45;&gt;6</title>
<path fill="none" stroke="black" d="M666.37,-103.88C686.75,-93.64 708.55,-82.69 728.62,-72.61"/>
<polygon fill="black" stroke="black" points="730.35,-75.66 737.72,-68.04 727.21,-69.4 730.35,-75.66"/>
</g>
</g>
</svg>
